<svg width="412" height="474" viewBox="0 0 412 474" fill="none" xmlns="http://www.w3.org/2000/svg">
<g id="Group 2">
<path id="Combined Shape" fill-rule="evenodd" clip-rule="evenodd" d="M114.569 1.78618C112.794 3.90155 113.07 7.05533 115.186 8.83034L196.386 76.9658C196.584 77.132 196.792 77.2802 197.006 77.4105C197.037 78.3335 197.193 79.2247 197.458 80.0679H58C25.9675 80.0679 0 106.035 0 138.068V393.068C0 425.1 25.9675 451.068 58 451.068H125.739L109.83 464.417C107.715 466.192 107.439 469.346 109.214 471.461C110.989 473.577 114.143 473.853 116.258 472.078L141.297 451.068H270.992L296.031 472.078C298.146 473.853 301.3 473.577 303.075 471.461C304.85 469.346 304.574 466.192 302.459 464.417L286.55 451.068H354C386.033 451.068 412 425.1 412 393.068V138.068C412 106.035 386.033 80.0679 354 80.0679H216.542C216.84 79.1208 217 78.1131 217 77.0679C217 76.9275 216.997 76.7878 216.991 76.6488L297.814 8.83034C299.93 7.05533 300.206 3.90155 298.431 1.78618C296.656 -0.329195 293.502 -0.605115 291.386 1.16989L211.55 68.1606C210.185 67.462 208.639 67.0679 207 67.0679C205.116 67.0679 203.353 67.589 201.849 68.4951L121.614 1.16989C119.498 -0.605115 116.344 -0.329195 114.569 1.78618Z" fill="url(#paint0_linear_0_50)"/>
</g>
<defs>
<linearGradient id="paint0_linear_0_50" x1="462.537" y1="236.204" x2="145.161" y2="-41.6858" gradientUnits="userSpaceOnUse">
<stop stop-color="#F8BBD0"/>
<stop offset="1" stop-color="#C5CAE9"/>
</linearGradient>
</defs>
</svg>
