<svg width="42" height="42" viewBox="0 0 42 42" fill="none" xmlns="http://www.w3.org/2000/svg">
<path d="M3.3112 0.346263C2.1099 0.346578 1.02857 1.07495 0.576531 2.18829C0.124491 3.30164 0.391886 4.57795 1.25277 5.41606L16.8784 21.0465L1.25277 36.677C0.481553 37.4176 0.17089 38.5175 0.440591 39.5524C0.710291 40.5872 1.51821 41.3954 2.55276 41.6652C3.58732 41.935 4.68684 41.6242 5.42729 40.8528L21.0529 25.2223L36.6786 40.8528C37.419 41.6242 38.5186 41.935 39.5531 41.6652C40.5877 41.3954 41.3956 40.5873 41.6653 39.5524C41.935 38.5175 41.6243 37.4176 40.8531 36.677L25.2275 21.0465L40.8531 5.41606C41.7262 4.56709 41.9888 3.269 41.5142 2.14729C41.0396 1.02558 39.9253 0.310358 38.7082 0.346263C37.9412 0.369123 37.2133 0.689763 36.6786 1.24026L21.0529 16.8707L5.42729 1.24026C4.87149 0.668742 4.10829 0.346309 3.3112 0.346263Z" fill="#304FFE"/>
</svg>
