<svg width="61" height="58" viewBox="0 0 61 58" fill="none" xmlns="http://www.w3.org/2000/svg">
<path d="M47.4126 57.8751C46.9262 57.8771 46.4463 57.7623 46.0134 57.5405L30.5009 49.4193L14.9884 57.5405C14.4847 57.8054 13.9168 57.9236 13.3492 57.8818C12.7816 57.84 12.2372 57.6397 11.7777 57.3039C11.3183 56.968 10.9623 56.51 10.7502 55.9818C10.5381 55.4537 10.4785 54.8767 10.578 54.3164L13.6197 37.1918L1.08801 25.0251C0.697026 24.6349 0.419669 24.1457 0.285702 23.6098C0.151735 23.0739 0.166217 22.5117 0.327593 21.9834C0.503887 21.4428 0.828179 20.9625 1.26367 20.5969C1.69915 20.2313 2.2284 19.9951 2.79134 19.9151L20.1288 17.3905L27.7634 1.78676C28.0125 1.2725 28.4014 0.838799 28.8855 0.535336C29.3697 0.231873 29.9295 0.0709229 30.5009 0.0709229C31.0723 0.0709229 31.6322 0.231873 32.1163 0.535336C32.6005 0.838799 32.9894 1.2725 33.2384 1.78676L40.9643 17.3601L58.3018 19.8847C58.8647 19.9647 59.3939 20.2009 59.8294 20.5665C60.2649 20.9321 60.5892 21.4124 60.7655 21.953C60.9269 22.4813 60.9414 23.0435 60.8074 23.5794C60.6734 24.1152 60.3961 24.6045 60.0051 24.9947L47.4734 37.1613L50.5151 54.2859C50.6237 54.8562 50.5668 55.4456 50.3512 55.9846C50.1356 56.5235 49.7703 56.9896 49.2984 57.3276C48.7476 57.7136 48.0844 57.9061 47.4126 57.8751V57.8751Z" fill="#304FFE"/>
</svg>
