<svg width="2560" height="1578" viewBox="0 0 2560 1578" fill="none" xmlns="http://www.w3.org/2000/svg">
<path fill-rule="evenodd" clip-rule="evenodd" d="M0 130.046C0 130.046 503.459 310.437 975 310.437C1446.54 310.437 1688.44 65.0778 1967 12.4335C2245.56 -40.2109 2560 130.046 2560 130.046V1570H0V130.046Z" fill="#E91E63" fill-opacity="0.1"/>
<mask id="mask0_0_314" style="mask-type:luminance" maskUnits="userSpaceOnUse" x="0" y="2" width="2560" height="1568">
<path fill-rule="evenodd" clip-rule="evenodd" d="M0 130.046C0 130.046 503.459 310.437 975 310.437C1446.54 310.437 1688.44 65.0778 1967 12.4335C2245.56 -40.2109 2560 130.046 2560 130.046V1570H0V130.046Z" fill="white"/>
</mask>
<g mask="url(#mask0_0_314)">
<path fill-rule="evenodd" clip-rule="evenodd" d="M-277 109.793L528.395 109.793C528.395 109.793 417 109.793 557 340.618C638.574 475.113 768 623.33 768 761.818C768 916.102 674.878 1012.43 627.5 1201.36C581.869 1383.32 734.65 1577.79 734.65 1577.79H-277V109.793Z" fill="#E91E63"/>
<path d="M3347.1 -623.322L3201.18 1691.38L2259.3 1586.97C2261.74 1583.16 2264.67 1578.56 2268.03 1573.22C2278.8 1556.08 2294 1531.34 2311.71 1500.9C2347.12 1440.06 2392.62 1356.37 2432.91 1265.09C2473.17 1173.89 2508.41 1074.7 2523.01 982.936C2537.58 891.433 2531.91 805.526 2488.07 742.593C2463.65 707.533 2437.81 675.25 2412.93 644.195L2412.71 643.914C2387.85 612.873 2364.01 583.111 2343.1 552.615C2301.26 491.609 2271.62 428.349 2270.22 348.541C2268.67 259.629 2303.13 194.212 2344.73 121.6C2347.22 117.256 2349.73 112.887 2352.26 108.487C2391.95 39.4873 2435.95 -36.9903 2456.93 -144.663C2478.59 -255.823 2449.79 -374.976 2416.18 -465.578C2399.33 -511.018 2381.14 -549.591 2367.17 -576.813C2360.98 -588.868 2355.61 -598.708 2351.54 -605.945L3347.1 -623.322Z" stroke="url(#paint0_linear_0_314)" stroke-width="19"/>
</g>
<defs>
<linearGradient id="paint0_linear_0_314" x1="1674.79" y1="504.842" x2="2873.02" y2="1916.32" gradientUnits="userSpaceOnUse">
<stop stop-color="#E91E63"/>
<stop offset="1" stop-color="#304FFE"/>
</linearGradient>
</defs>
</svg>
