<svg width="2560" height="705" viewBox="0 0 2560 705" fill="none" xmlns="http://www.w3.org/2000/svg">
<path fill-rule="evenodd" clip-rule="evenodd" d="M0 57.7336C0 57.7336 503.459 137.818 975 137.818C1446.54 137.818 1688.44 28.8912 1967 5.51982C2245.56 -17.8516 2560 57.7336 2560 57.7336V697H0V57.7336Z" fill="#E91E63" fill-opacity="0.1"/>
<mask id="mask0_0_314" style="mask-type:luminance" maskUnits="userSpaceOnUse" x="0" y="0" width="2560" height="697">
<path fill-rule="evenodd" clip-rule="evenodd" d="M0 56.7828C0 56.7828 503.459 136.987 975 136.987C1446.54 136.987 1688.44 27.8975 1967 4.49135C2245.56 -18.9148 2560 56.7828 2560 56.7828V697H0V56.7828Z" fill="white"/>
</mask>
<g mask="url(#mask0_0_314)">
<path fill-rule="evenodd" clip-rule="evenodd" d="M-277 -216.327H528.395C528.395 -216.327 417 -216.327 557 -71.9511C638.574 12.1726 768 104.879 768 191.5C768 288.001 674.878 348.25 627.5 466.421C581.869 580.237 734.65 701.875 734.65 701.875H-277V-216.327Z" fill="#E91E63"/>
<path d="M2264.9 704.472C2265.5 703.876 2266.11 703.266 2266.75 702.638C2277.55 691.894 2292.77 676.391 2310.51 657.323C2345.97 619.215 2391.59 566.738 2432.02 509.449C2472.34 452.307 2508 389.689 2522.84 331.358C2537.62 273.3 2532.11 217.556 2487.62 176.815L2486.56 175.856C2462.06 153.855 2436.15 133.612 2411.29 114.199C2386.33 94.7026 2362.49 76.0928 2341.6 57.0443C2299.72 18.8425 2271.55 -19.5168 2270.22 -66.9949C2268.74 -120.049 2301.55 -159.564 2343.54 -205.419C2384.5 -250.142 2433.21 -299.986 2456.14 -371.953L2456.68 -373.657C2479.09 -445.598 2449.16 -522.004 2415.43 -578.881C2398.42 -607.569 2380.09 -631.884 2366.03 -649.017C2362.51 -653.304 2359.25 -657.146 2356.35 -660.501L3346.69 -671.314L3201.49 769.415L2264.9 704.472Z" stroke="url(#paint0_linear_0_314)" stroke-width="19"/>
</g>
<defs>
<linearGradient id="paint0_linear_0_314" x1="1674.79" y1="30.7678" x2="2304" y2="1215.76" gradientUnits="userSpaceOnUse">
<stop stop-color="#E91E63"/>
<stop offset="1" stop-color="#304FFE"/>
</linearGradient>
</defs>
</svg>
