<svg width="60" height="52" viewBox="0 0 60 52" fill="none" xmlns="http://www.w3.org/2000/svg">
<path fill-rule="evenodd" clip-rule="evenodd" d="M4.37858 4.63295C7.18303 1.78795 10.9862 0.189721 14.9517 0.189721C18.9172 0.189721 22.7203 1.78795 25.5247 4.63295L29.9065 9.07563L34.2883 4.63295C35.6678 3.18352 37.318 2.0274 39.1426 1.23206C40.9671 0.436721 42.9295 0.0180829 44.9152 0.000572983C46.9009 -0.016937 48.8701 0.367034 50.708 1.13008C52.5459 1.89313 54.2157 3.01996 55.6198 4.44485C57.024 5.86973 58.1344 7.56413 58.8864 9.42916C59.6383 11.2942 60.0167 13.2925 59.9994 15.3075C59.9822 17.3225 59.5696 19.3139 58.7859 21.1654C58.0021 23.0169 56.8628 24.6914 55.4345 26.0913L29.9065 52L4.37858 26.0913C1.57498 23.2455 0 19.3862 0 15.3621C0 11.3381 1.57498 7.47881 4.37858 4.63295Z" fill="#304FFE"/>
</svg>
