<svg width="215" height="208" viewBox="0 0 215 208" fill="none" xmlns="http://www.w3.org/2000/svg">
<ellipse cx="107.5" cy="103.987" rx="104.5" ry="100.987" stroke="white" stroke-width="6"/>
<path fill-rule="evenodd" clip-rule="evenodd" d="M60.3793 69.4077C65.6331 64.2188 72.7579 61.3039 80.1868 61.3039C87.6157 61.3039 94.7405 64.2188 99.9943 69.4077L108.203 77.5105L116.412 69.4077C118.996 66.7642 122.088 64.6556 125.506 63.205C128.924 61.7544 132.6 60.9909 136.32 60.9589C140.04 60.927 143.729 61.6273 147.172 63.019C150.615 64.4107 153.744 66.4659 156.374 69.0646C159.005 71.6634 161.085 74.7537 162.494 78.1553C163.902 81.5568 164.611 85.2015 164.579 88.8766C164.546 92.5517 163.774 96.1836 162.305 99.5604C160.837 102.937 158.703 105.991 156.027 108.545L108.203 155.798L60.3793 108.545C55.127 103.354 52.1765 96.3154 52.1765 88.9762C52.1765 81.6369 55.127 74.5981 60.3793 69.4077Z" fill="white"/>
</svg>
