<svg width="2560" height="1338" viewBox="0 0 2560 1338" fill="none" xmlns="http://www.w3.org/2000/svg">
<path fill-rule="evenodd" clip-rule="evenodd" d="M2559 1238C2559 1238 2084 1133.22 1577 1298.65C1070 1464.08 949 1054.37 559.5 1054.37C170 1054.37 -42 1238 -42 1238L-214 491.09C-214 491.09 -71.5 372.533 419 222.269C909.5 72.0059 1351 552.849 1775.5 552.849C2200 552.849 2649 196.904 2649 196.904L2559 1238Z" fill="#304FFE" fill-opacity="0.05"/>
<path fill-rule="evenodd" clip-rule="evenodd" d="M2574 1048.65C2574 1048.65 2099 943.491 1592 1109.53C1085 1275.56 964 864.348 574.5 864.348C185 864.348 -27 1048.65 -27 1048.65L-199 299C-199 299 -56.5 180.008 434 29.1936C924.5 -121.621 1366 360.986 1790.5 360.986C2215 360.986 2664 3.73498 2664 3.73498L2574 1048.65Z" fill="#E91E63" fill-opacity="0.05"/>
</svg>
