<svg width="2560" height="2078" viewBox="0 0 2560 2078" fill="none" xmlns="http://www.w3.org/2000/svg">
<path fill-rule="evenodd" clip-rule="evenodd" d="M3537.26 1955.01C3537.26 1955.01 2873.62 1826.15 2165.27 2029.61C1456.92 2233.07 1287.87 1729.17 743.685 1729.17C199.5 1729.17 -96.6926 1955.01 -96.6926 1955.01L-337 1036.39C-337 1036.39 -137.908 890.581 547.387 705.774C1232.68 520.966 1849.52 1112.35 2442.6 1112.35C3035.69 1112.35 3663 674.577 3663 674.577L3537.26 1955.01Z" fill="#304FFE" fill-opacity="0.05"/>
<path fill-rule="evenodd" clip-rule="evenodd" d="M2574 1589.83C2574 1589.83 2099 1430.41 1592 1682.13C1085 1933.85 964 1310.42 574.5 1310.42C185 1310.42 -27 1589.83 -27 1589.83L-199 453.307C-199 453.307 -56.5 272.907 434 44.2597C924.5 -184.387 1366 547.283 1790.5 547.283C2215 547.283 2664 5.66244 2664 5.66244L2574 1589.83Z" fill="#E91E63" fill-opacity="0.05"/>
</svg>
