<svg width="34" height="33" viewBox="0 0 34 33" fill="none" xmlns="http://www.w3.org/2000/svg">
<circle cx="16.5" cy="17" r="7" fill="#304FFE"/>
<path fill-rule="evenodd" clip-rule="evenodd" d="M10.2547 9.67614C12.0679 7.86294 14.4786 6.85365 17.0428 6.85365C19.6071 6.85365 22.0178 7.86825 23.831 9.68145C24.9814 10.8319 25.8034 12.2144 26.2509 13.7573H33.4571V4.07154C33.4571 1.79925 31.7008 0.0429688 29.4286 0.0429688H4.74285C2.47056 0.0429688 0.542847 1.79925 0.542847 4.07154V13.7573H7.83473C8.28233 12.2144 9.10425 10.8266 10.2547 9.67614ZM30.7143 7.1744C30.7143 7.78031 30.2231 8.27154 29.6171 8.27154H26.3257C25.7198 8.27154 25.2286 7.7804 25.2286 7.1744V3.88297C25.2286 3.27705 25.7197 2.78583 26.3257 2.78583H29.6171C30.223 2.78583 30.7143 3.27697 30.7143 3.88297V7.1744Z" fill="#304FFE"/>
<path fill-rule="evenodd" clip-rule="evenodd" d="M23.831 23.2525C22.0178 25.0657 19.6071 26.0535 17.0428 26.0535C14.4786 26.0535 12.0679 25.0711 10.2547 23.2579C8.44485 21.448 7.44679 18.9857 7.44302 16.5H0.542847V28.7571C0.542847 31.0294 2.47056 32.9571 4.74285 32.9571H29.4286C31.7008 32.9571 33.4571 31.0294 33.4571 28.7571V16.5H26.6427C26.639 18.9857 25.6409 21.4426 23.831 23.2525Z" fill="#304FFE"/>
</svg>

<svg width="40" height="32" viewBox="0 0 40 32" fill="none" xmlns="http://www.w3.org/2000/svg">
<path fill-rule="evenodd" clip-rule="evenodd" d="M40 3.79167C38.5251 4.43333 36.9485 4.86667 35.2871 5.06667C36.9824 4.06667 38.2878 2.48333 38.8981 0.6C37.313 1.525 35.5584 2.2 33.6851 2.55833C32.1848 0.983333 30.0487 0 27.6923 0C23.1574 0 19.4872 3.61667 19.4872 8.075C19.4872 8.70833 19.555 9.325 19.6991 9.91667C12.8756 9.58333 6.82348 6.36667 2.78025 1.475C2.07671 2.66667 1.66985 4.05833 1.66985 5.53333C1.66985 8.33333 3.12778 10.8083 5.33164 12.2583C3.97542 12.225 2.70396 11.8583 1.60203 11.25C1.60203 11.2833 1.60203 11.3167 1.60203 11.35C1.60203 15.2667 4.43314 18.525 8.18818 19.2667C7.50159 19.45 6.77262 19.55 6.0267 19.55C5.50117 19.55 4.98411 19.5 4.484 19.4C5.52659 22.6083 8.56114 24.9417 12.1551 25.0083C9.34944 27.175 5.80631 28.4667 1.95804 28.4667C1.29688 28.4667 0.644204 28.425 0 28.35C3.61941 30.6667 7.93388 32 12.562 32C27.6754 32 35.9313 19.6917 35.9313 9.01667C35.9313 8.66667 35.9229 8.31667 35.9059 7.975C37.5079 6.83333 38.8981 5.41667 40 3.79167Z" fill="#304FFE"/>
</svg>

<svg xmlns="http://www.w3.org/2000/svg" style="display: none;">
  <symbol id="icon-instagram" viewBox="0 0 34 33" fill="none">
    <circle cx="16.5" cy="17" r="7" fill="#304FFE"/>
    <path fill-rule="evenodd" clip-rule="evenodd" d="M10.2547 9.67614C12.0679 7.86294 14.4786 6.85365 17.0428 6.85365C19.6071 6.85365 22.0178 7.86825 23.831 9.68145C24.9814 10.8319 25.8034 12.2144 26.2509 13.7573H33.4571V4.07154C33.4571 1.79925 31.7008 0.0429688 29.4286 0.0429688H4.74285C2.47056 0.0429688 0.542847 1.79925 0.542847 4.07154V13.7573H7.83473C8.28233 12.2144 9.10425 10.8266 10.2547 9.67614ZM30.7143 7.1744C30.7143 7.78031 30.2231 8.27154 29.6171 8.27154H26.3257C25.7198 8.27154 25.2286 7.7804 25.2286 7.1744V3.88297C25.2286 3.27705 25.7197 2.78583 26.3257 2.78583H29.6171C30.223 2.78583 30.7143 3.27697 30.7143 3.88297V7.1744Z" fill="#304FFE"/>
    <path fill-rule="evenodd" clip-rule="evenodd" d="M23.831 23.2525C22.0178 25.0657 19.6071 26.0535 17.0428 26.0535C14.4786 26.0535 12.0679 25.0711 10.2547 23.2579C8.44485 21.448 7.44679 18.9857 7.44302 16.5H0.542847V28.7571C0.542847 31.0294 2.47056 32.9571 4.74285 32.9571H29.4286C31.7008 32.9571 33.4571 31.0294 33.4571 28.7571V16.5H26.6427C26.639 18.9857 25.6409 21.4426 23.831 23.2525Z" fill="#304FFE"/>
  </symbol>
  <symbol id="icon-twitter" viewBox="0 0 40 32" fill="none">
    <path fill-rule="evenodd" clip-rule="evenodd" d="M40 3.79167C38.5251 4.43333 36.9485 4.86667 35.2871 5.06667C36.9824 4.06667 38.2878 2.48333 38.8981 0.6C37.313 1.525 35.5584 2.2 33.6851 2.55833C32.1848 0.983333 30.0487 0 27.6923 0C23.1574 0 19.4872 3.61667 19.4872 8.075C19.4872 8.70833 19.555 9.325 19.6991 9.91667C12.8756 9.58333 6.82348 6.36667 2.78025 1.475C2.07671 2.66667 1.66985 4.05833 1.66985 5.53333C1.66985 8.33333 3.12778 10.8083 5.33164 12.2583C3.97542 12.225 2.70396 11.8583 1.60203 11.25C1.60203 11.2833 1.60203 11.3167 1.60203 11.35C1.60203 15.2667 4.43314 18.525 8.18818 19.2667C7.50159 19.45 6.77262 19.55 6.0266 19.55C5.50117 19.55 4.98411 19.5 4.484 19.4C5.52659 22.6083 8.56114 24.9417 12.1551 25.0083C9.34944 27.175 5.80631 28.4667 1.95804 28.4667C1.29688 28.4667 0.644204 28.425 0 28.35C3.61941 30.6667 7.93388 32 12.562 32C27.6754 32 35.9313 19.6917 35.9313 9.01667C35.9313 8.66667 35.9229 8.31667 35.9059 7.975C37.5079 6.83333 38.8981 5.41667 40 3.79167Z" fill="#304FFE"/>
  </symbol>
</svg>